<?xml version="1.0" encoding="UTF-8"?>
<svg id="uuid-3ac7bef6-fa10-4352-8006-a6a9381e3953" data-name="Слой 2" xmlns="http://www.w3.org/2000/svg" xmlns:xlink="http://www.w3.org/1999/xlink" viewBox="0 0 399.2 56.54">
  <defs>
    <style>
      .uuid-6a906dbe-b512-43eb-b419-e9828f2f7e32 {
        fill: #fff;
      }

      .uuid-6a906dbe-b512-43eb-b419-e9828f2f7e32, .uuid-796427ed-1492-450c-adb1-42bb75b9b94b {
        stroke-width: 0px;
      }

      .uuid-796427ed-1492-450c-adb1-42bb75b9b94b {
        fill: url(#uuid-77225644-cfc2-4c3a-b46c-cd2ddd29a2ef);
      }
    </style>
    <linearGradient id="uuid-77225644-cfc2-4c3a-b46c-cd2ddd29a2ef" data-name="Безымянный градиент" x1="-556.3" y1="491.09" x2="-555.66" y2="491.09" gradientTransform="translate(66272.36 38749.46) scale(118.8 -78.85)" gradientUnits="userSpaceOnUse">
      <stop offset="0" stop-color="#00ff8f"/>
      <stop offset="1" stop-color="#00a1ff"/>
    </linearGradient>
  </defs>
  <g id="uuid-17100cf4-f792-4203-987b-54ae896ec173" data-name="Слой 1">
    <g>
      <g id="uuid-cd07ba81-6bde-43c2-ba55-ebc612af9265" data-name="SvgjsG5324">
        <path class="uuid-796427ed-1492-450c-adb1-42bb75b9b94b" d="m252.9,39.67c-4.25,5.47-10.9,8.99-18.38,8.99-3.85,0-7.54-.9-10.89-2.7,6.63-4.75,10.48-12.37,10.48-20.57s-3.85-15.82-10.48-20.57c3.36-1.8,7.04-2.7,10.89-2.7,7.98,0,15.01,4.01,19.2,10.12.03,0,.06-.01.09-.02.55-.4,1.12-.76,1.71-1.11-4.57-6.71-12.27-11.13-21-11.13-4.55,0-9.01,1.2-12.9,3.53-3.81-2.26-8.28-3.53-12.82-3.53-14.01,0-25.4,11.38-25.4,25.39s11.39,25.4,25.4,25.4c4.53,0,8.98-1.19,12.86-3.5,3.88,2.31,8.33,3.5,12.86,3.5,8.13,0,15.37-3.84,20.02-9.8-.5-.39-.98-.82-1.41-1.26-.08-.02-.15-.04-.23-.06Zm-28.28,2.72l-13.03-13.02c-.23-1.31-.34-2.64-.34-3.99,0-.31,0-.63.02-.94l15.53,15.59c-.67.84-1.4,1.62-2.19,2.35Zm3.6-4.27l-16.62-16.68c.22-1.26.53-2.49.95-3.68l17.34,17.34c-.49,1.04-1.04,2.05-1.67,3.02Zm2.6-5.42l-17.31-17.32c.48-1,1.03-1.97,1.65-2.9l16.55,16.55c-.2,1.25-.5,2.48-.89,3.67Zm1.17-7.32c0,.2,0,.4,0,.61l-15.41-15.41c.69-.84,1.44-1.63,2.25-2.38l12.76,12.76c.27,1.44.41,2.91.41,4.41Zm-10.35-19.4c3.88,2.55,6.8,6.12,8.53,10.24l-9.53-9.53c.32-.24.66-.48,1-.71Zm-12.83,42.66c-12.86,0-23.27-10.4-23.27-23.27s10.41-23.27,23.27-23.27c3.85,0,7.54.9,10.89,2.7-6.63,4.75-10.48,12.37-10.48,20.57s3.94,15.81,10.48,20.57c-3.36,1.8-7.13,2.7-10.89,2.7Zm12.86-3.89c-4.01-2.69-7.02-6.44-8.74-10.74l9.9,9.9c-.37.29-.77.57-1.16.84Z"/>
      </g>
      <g>
        <path class="uuid-6a906dbe-b512-43eb-b419-e9828f2f7e32" d="m34.66,6.35c.46,0,.87.17,1.22.52.35.35.52.76.52,1.23v33.5c0,.47-.17.88-.52,1.22-.35.35-.75.53-1.22.53h-4.37c-.6,0-1.08-.23-1.44-.7L4.4,9.15c-.43-.6-.48-1.22-.15-1.85.3-.63.81-.95,1.54-.95h4.37c.63,0,1.09.23,1.39.7l17.6,23.85V8.1c0-.47.17-.88.5-1.23.33-.35.75-.52,1.24-.52h3.77ZM9.56,30.6c.46,0,.87.17,1.22.5s.52.75.52,1.25v9.25c0,.47-.17.88-.52,1.22-.35.35-.75.53-1.22.53h-3.77c-.46,0-.87-.17-1.22-.53-.35-.35-.52-.76-.52-1.22v-9.25c0-.5.17-.92.52-1.25s.75-.5,1.22-.5h3.77Z"/>
        <path class="uuid-6a906dbe-b512-43eb-b419-e9828f2f7e32" d="m77.8,6.35c.5,0,.92.17,1.25.52.33.35.5.75.5,1.22v3.62c0,.5-.17.92-.5,1.27-.33.35-.75.52-1.25.52h-24.7c-.47,0-.88-.17-1.22-.52-.35-.35-.53-.77-.53-1.27v-3.62c0-.46.18-.87.53-1.22.35-.35.76-.52,1.22-.52h24.7Zm-24.7,22.15c-.47,0-.88-.17-1.22-.52-.35-.35-.53-.76-.53-1.23v-3.75c0-.47.18-.88.53-1.22.35-.35.76-.53,1.22-.53h22.45c.5,0,.92.18,1.27.53s.52.76.52,1.22v3.75c0,.47-.17.88-.52,1.23-.35.35-.77.52-1.27.52h-22.45Zm24.7,7.8c.5,0,.92.17,1.25.52.33.35.5.77.5,1.27v3.62c0,.46-.17.87-.5,1.22-.33.35-.75.52-1.25.52h-24.7c-.47,0-.88-.17-1.22-.52-.35-.35-.53-.75-.53-1.22v-3.62c0-.5.18-.92.53-1.27.35-.35.76-.52,1.22-.52h24.7Z"/>
        <path class="uuid-6a906dbe-b512-43eb-b419-e9828f2f7e32" d="m105.3,36.49c.4.13.72.36.95.68.23.32.35.67.35,1.07v3.85c0,.53-.22.98-.65,1.35-.33.27-.7.4-1.1.4-.17,0-.28-.02-.35-.05-3.1-.6-5.77-2.03-8-4.3-3-3.03-4.5-7.07-4.5-12.1V8.15c0-.5.18-.92.52-1.28.35-.35.76-.52,1.23-.52h3.85c.5,0,.92.17,1.27.52.35.35.52.78.52,1.28v19.35c0,3.17.9,5.58,2.7,7.25.93.87,2,1.45,3.2,1.75Zm17.25-30.15c.5,0,.92.17,1.27.52.35.35.52.78.52,1.28v19.25c0,5.03-1.5,9.07-4.5,12.1-2.23,2.27-4.9,3.7-8,4.3-.07.03-.18.05-.35.05-.4,0-.77-.13-1.1-.4-.43-.33-.65-.8-.65-1.4v-3.85c0-.37.12-.71.35-1.02.23-.32.55-.54.95-.68,1.27-.37,2.33-.95,3.2-1.75,1.8-1.6,2.7-4.02,2.7-7.25V8.15c0-.5.17-.92.52-1.28.35-.35.77-.52,1.27-.52h3.8Z"/>
        <path class="uuid-6a906dbe-b512-43eb-b419-e9828f2f7e32" d="m170.1,40.65c.37.6.38,1.2.05,1.8-.33.6-.83.9-1.5.9h-4.55c-.63,0-1.12-.27-1.45-.8l-7.62-12.05h-8.93v11.1c0,.47-.17.88-.52,1.22-.35.35-.75.53-1.22.53h-3.77c-.46,0-.87-.17-1.22-.53-.35-.35-.52-.76-.52-1.23v-16.49c0-.47.18-.88.53-1.23.35-.35.76-.53,1.22-.53h15.4c2.93,0,4.88-.83,5.85-2.48.33-.53.5-1.29.5-2.28,0-1.55-.52-2.77-1.55-3.66-1.07-.96-2.6-1.44-4.6-1.44h-15.6c-.47,0-.88-.18-1.22-.53-.35-.35-.53-.76-.53-1.23v-3.62c0-.47.17-.88.52-1.23.35-.35.76-.53,1.22-.53h16.02c3.86,0,6.97,1.1,9.33,3.3,2.43,2.2,3.64,5.18,3.64,8.95,0,4.93-2.07,8.32-6.21,10.15-.13.07-.26.12-.4.18-.13.05-.28.11-.45.17l7.55,11.55Z"/>
        <path class="uuid-6a906dbe-b512-43eb-b419-e9828f2f7e32" d="m298.31,6.35c.46,0,.87.17,1.22.52.35.35.52.76.52,1.23v33.6c0,.47-.17.88-.52,1.23-.35.35-.75.52-1.22.52h-3.77c-.5,0-.91-.17-1.24-.52-.33-.35-.5-.76-.5-1.23v-13.2h-16.1v13.2c0,.47-.17.88-.5,1.23-.33.35-.74.52-1.24.52h-3.77c-.46,0-.87-.17-1.22-.52-.35-.35-.52-.76-.52-1.23v-18.7c0-.47.17-.88.53-1.22.35-.35.76-.53,1.22-.53h21.6v-13.15c0-.47.16-.88.5-1.23.33-.35.75-.52,1.24-.52h3.77Zm-27.12,12.8c-.46,0-.87-.17-1.22-.53-.35-.35-.52-.76-.52-1.22v-9.3c0-.47.17-.88.52-1.23.35-.35.75-.52,1.22-.52h3.77c.5,0,.91.17,1.24.52.33.35.5.76.5,1.23v9.3c0,.47-.17.88-.5,1.22-.33.35-.74.53-1.24.53h-3.77Z"/>
        <path class="uuid-6a906dbe-b512-43eb-b419-e9828f2f7e32" d="m347.75,42.65c-.37.53-.85.8-1.45.8h-33.3c-.63,0-1.12-.26-1.45-.79-.37-.53-.42-1.08-.15-1.64l1.55-3.62c.13-.33.34-.6.62-.79s.61-.3.97-.3h23.3l-1.5-3.61-6.7-16.03-6.7,16.03c-.13.33-.34.59-.62.78-.28.18-.61.28-.97.28h-4.2c-.63,0-1.13-.27-1.5-.8-.33-.5-.38-1.05-.15-1.65l10.15-23.84c.13-.37.34-.64.62-.83.28-.18.61-.28.97-.28h4.8c.77,0,1.3.37,1.6,1.1l14.25,33.55c.23.53.18,1.08-.15,1.65Z"/>
        <path class="uuid-6a906dbe-b512-43eb-b419-e9828f2f7e32" d="m390.4,40.65c.37.6.38,1.2.05,1.8-.33.6-.83.9-1.5.9h-4.55c-.63,0-1.12-.27-1.45-.8l-7.62-12.05h-8.93v11.1c0,.47-.17.88-.52,1.22-.35.35-.75.53-1.22.53h-3.77c-.46,0-.87-.17-1.22-.53-.35-.35-.52-.76-.52-1.23v-16.49c0-.47.17-.88.53-1.23.35-.35.76-.53,1.22-.53h15.4c2.93,0,4.88-.83,5.85-2.48.33-.53.5-1.29.5-2.28,0-1.55-.52-2.77-1.55-3.66-1.07-.96-2.6-1.44-4.6-1.44h-15.6c-.47,0-.88-.18-1.22-.53-.35-.35-.53-.76-.53-1.23v-3.62c0-.47.17-.88.52-1.23.35-.35.76-.53,1.22-.53h16.02c3.86,0,6.97,1.1,9.33,3.3,2.43,2.2,3.64,5.18,3.64,8.95,0,4.93-2.07,8.32-6.21,10.15-.13.07-.26.12-.4.18-.13.05-.28.11-.45.17l7.55,11.55Z"/>
      </g>
    </g>
  </g>
</svg>