<?xml version="1.0" encoding="UTF-8"?>
<svg id="Icons" xmlns="http://www.w3.org/2000/svg" viewBox="0 0 24 24.03">
  <defs>
    <style>
      .cls-1 {
        fill: #333;
        stroke-width: 0px;
      }
    </style>
  </defs>
  <path class="cls-1" d="m23.3.73c-.94-.94-2.45-.94-3.39,0l-7.89,7.89L4.12.73C3.2-.22,1.68-.25.73.67c-.95.92-.98,2.44-.06,3.39.02.02.04.04.06.06l7.89,7.89L.73,19.91c-.95.92-.98,2.44-.06,3.39.92.95,2.44.98,3.39.06.02-.02.04-.04.06-.06l7.89-7.89,7.89,7.89c.95.92,2.47.89,3.39-.06.9-.93.9-2.4,0-3.33l-7.89-7.89,7.89-7.89c.94-.94.94-2.45,0-3.39Z"/>
</svg>