<?xml version="1.0" encoding="UTF-8"?>
<svg id="Layer_1" data-name="Layer 1" xmlns="http://www.w3.org/2000/svg" viewBox="0 0 24 24">
  <defs>
    <style>
      .cls-1 {
        stroke-width: 0px;
      }
    </style>
  </defs>
  <path class="cls-1" d="m4.95.68v2.86c0,.91,1.47.91,1.47,0V.68c0-.91-1.47-.91-1.47,0"/>
  <path class="cls-1" d="m22.54,22.6H1.46V2.72h21.08v19.88Zm1.46,0V2.02c0-.39-.33-.7-.73-.7H.73c-.4,0-.73.31-.73.7v21.28c0,.39.33.7.73.7h23.27v-1.4Z"/>
  <path class="cls-1" d="m17.58.68v2.86c0,.91,1.47.91,1.47,0V.68c0-.91-1.47-.91-1.47,0"/>
  <path class="cls-1" d="m11.26.68v2.86c0,.91,1.47.91,1.47,0V.68c0-.91-1.47-.91-1.47,0"/>
  <path class="cls-1" d="m5.67,9.95h1.96c.96,0,.96-1.4,0-1.4h-1.96c-.96,0-.96,1.4,0,1.4"/>
  <path class="cls-1" d="m11.02,9.95h1.96c.96,0,.96-1.4,0-1.4h-1.96c-.96,0-.96,1.4,0,1.4"/>
  <path class="cls-1" d="m16.37,9.95h1.96c.96,0,.96-1.4,0-1.4h-1.96c-.96,0-.96,1.4,0,1.4"/>
  <path class="cls-1" d="m5.67,14.18h1.96c.96,0,.96-1.4,0-1.4h-1.96c-.96,0-.96,1.4,0,1.4"/>
  <path class="cls-1" d="m11.02,14.18h1.96c.96,0,.96-1.4,0-1.4h-1.96c-.96,0-.96,1.4,0,1.4"/>
  <path class="cls-1" d="m16.37,14.18h1.96c.96,0,.96-1.4,0-1.4h-1.96c-.96,0-.96,1.4,0,1.4"/>
  <path class="cls-1" d="m5.67,18.42h1.96c.96,0,.96-1.4,0-1.4h-1.96c-.96,0-.96,1.4,0,1.4"/>
  <path class="cls-1" d="m11.02,18.42h1.96c.96,0,.96-1.4,0-1.4h-1.96c-.96,0-.96,1.4,0,1.4"/>
  <path class="cls-1" d="m16.37,18.42h1.96c.96,0,.96-1.4,0-1.4h-1.96c-.96,0-.96,1.4,0,1.4"/>
</svg>